<svg xmlns="http://www.w3.org/2000/svg" xmlns:xlink="http://www.w3.org/1999/xlink" x="0px" y="0px" viewBox="0 0 226.77 357.31" style="enable-background:new 0 0 226.77 357.31;" xml:space="preserve">
<style type="text/css">
	.st0{fill:#D0043C;}
	.st1{display:none;}
	.st2{display:inline;}
	.st3{display:inline;fill:#D0043C;}
</style>
<g id="Calque_3">
	<g>
		<path d="M93.95,148.67c3.54,0.28,5.88,2.22,5.88,5.36c0,3.5-2.44,5.57-8.7,5.57c-5.77,0-8.68-2.07-8.68-5.73    c0-3.69,2.54-5.35,8.08-5.35h0.69v9.08H92c4.79,0,6.26-1.69,6.26-3.54c0-1.98-1.41-3.2-4.32-3.51V148.67z M89.65,150.51    c-4.13,0.06-5.64,1.22-5.64,3.55c0,2.31,1.5,3.47,5.64,3.54V150.51z"></path>
		<path d="M92.32,141.59l7.14,3.48v2.13l-8.58-4.48l-8.05,4.29v-2.13l6.58-3.29l-6.58-3.29v-2.13l8.05,4.29l8.58-4.48v2.13    L92.32,141.59z"></path>
		<path d="M82.83,134.17v-1.69h2.38v-0.06c-1.53-0.59-2.75-1.98-2.75-4.1c0-3.7,2.95-5.29,8.71-5.29c5.73,0,8.67,1.66,8.67,5.32    c0,2.07-1.12,3.48-2.88,3.88v0.07h8.02v1.88H82.83z M84.02,128.6c0,1.06,0.56,2,1.47,2.62c1.16,0.82,2.79,1.07,5.67,1.07    c6.14,0,7.11-1.73,7.11-3.64c0-1.88-0.97-3.63-7.11-3.63C85.11,125.02,84.02,126.78,84.02,128.6z"></path>
		<path d="M93.95,109.84c3.54,0.28,5.88,2.22,5.88,5.36c0,3.51-2.44,5.57-8.7,5.57c-5.77,0-8.68-2.07-8.68-5.73    c0-3.69,2.54-5.35,8.08-5.35h0.69v9.08H92c4.79,0,6.26-1.69,6.26-3.54c0-1.98-1.41-3.2-4.32-3.51V109.84z M89.65,111.69    c-4.13,0.06-5.64,1.22-5.64,3.54c0,2.32,1.5,3.48,5.64,3.54V111.69z"></path>
		<path d="M82.83,106.74v-1.88h2.6v-0.06c-1.85-0.72-2.98-2.25-2.98-4.2c0-0.22,0.03-0.43,0.1-0.66h1.88    c-0.06,0.31-0.09,0.63-0.09,0.91c0,2.07,1.5,4.01,4.73,4.01h10.4v1.88H82.83z"></path>
		<path d="M84.39,96.25v2.29h-1.56v-2.29h-4.61v-1.88h4.61v-2.95h1.56v2.95h11.93c1.32,0,1.76-0.57,1.76-1.78    c0-0.37-0.06-0.75-0.19-1.16h1.57c0.12,0.22,0.19,0.69,0.19,1.32c0,2.54-0.69,3.51-2.91,3.51H84.39z"></path>
		<path d="M77.1,89.27v-1.88h3.19v1.88H77.1z M82.83,89.27v-1.88h16.63v1.88H82.83z"></path>
		<path d="M91.19,81.01c-0.91,2.35-2.29,3.2-3.95,3.2c-3.42,0-4.79-2.13-4.79-4.95c0-3.14,1.59-4.57,4.63-4.57h0.47v1.88h-0.47    c-2.16,0-3.07,1-3.07,2.72c0,2.19,1.16,3.04,2.82,3.04c1.16,0,2.07-0.38,2.79-2.26l1.03-2.73c0.85-2.25,2.42-3.1,4.23-3.1    c2.85,0,4.95,1.63,4.95,5.14c0,3.41-1.41,5.1-5.16,5.1h-0.54V82.6h0.44c2.44,0,3.69-1.06,3.69-3.19c0-2.01-1.13-3.29-2.98-3.29    c-1.47,0-2.41,0.6-3.07,2.26L91.19,81.01z"></path>
		<path d="M93.95,61.22c3.54,0.28,5.88,2.22,5.88,5.35c0,3.5-2.44,5.57-8.7,5.57c-5.77,0-8.68-2.07-8.68-5.73    c0-3.7,2.54-5.36,8.08-5.36h0.69v9.08H92c4.79,0,6.26-1.69,6.26-3.54c0-1.98-1.41-3.19-4.32-3.51V61.22z M89.65,63.06    c-4.13,0.06-5.64,1.23-5.64,3.54c0,2.32,1.5,3.48,5.64,3.54V63.06z"></path>
		<path d="M91.19,55.49c-0.91,2.35-2.29,3.19-3.95,3.19c-3.42,0-4.79-2.13-4.79-4.95c0-3.13,1.59-4.57,4.63-4.57h0.47v1.88h-0.47    c-2.16,0-3.07,1-3.07,2.72c0,2.19,1.16,3.04,2.82,3.04c1.16,0,2.07-0.38,2.79-2.25l1.03-2.72c0.85-2.25,2.42-3.1,4.23-3.1    c2.85,0,4.95,1.62,4.95,5.14c0,3.41-1.41,5.1-5.16,5.1h-0.54v-1.88h0.44c2.44,0,3.69-1.06,3.69-3.19c0-2.01-1.13-3.29-2.98-3.29    c-1.47,0-2.41,0.59-3.07,2.26L91.19,55.49z"></path>
	</g>
	<g>
		<path d="M110.53,159.59v-1.88h3.19v1.88H110.53z M116.26,159.59v-1.88h16.63v1.88H116.26z"></path>
		<path d="M116.26,153.83v-1.69h2.32v-0.06c-1.85-0.88-2.7-2.38-2.7-4.23c0-2.01,1.22-3.23,2.91-3.48v-0.06    c-1.85-0.75-2.91-2.1-2.91-4.23c0-2.32,1.31-3.85,4.29-3.85h12.72v1.88h-12.44c-1.97,0-3.01,0.91-3.01,2.6    c0,1.88,1.7,3.38,4.26,3.38h11.18v1.88h-12.44c-1.97,0-3.01,0.91-3.01,2.6c0,1.88,1.7,3.38,4.26,3.38h11.18v1.88H116.26z"></path>
		<path d="M116.26,132.35v-1.69h2.32v-0.06c-1.85-0.88-2.7-2.38-2.7-4.23c0-2.01,1.22-3.23,2.91-3.48v-0.06    c-1.85-0.75-2.91-2.1-2.91-4.23c0-2.32,1.31-3.85,4.29-3.85h12.72v1.88h-12.44c-1.97,0-3.01,0.91-3.01,2.6    c0,1.88,1.7,3.39,4.26,3.39h11.18v1.88h-12.44c-1.97,0-3.01,0.91-3.01,2.6c0,1.88,1.7,3.38,4.26,3.38h11.18v1.88H116.26z"></path>
		<path d="M115.89,106.15c0-3.67,2.91-5.73,8.68-5.73c5.79,0,8.7,2.06,8.7,5.73c0,3.66-2.91,5.73-8.7,5.73    C118.8,111.88,115.89,109.81,115.89,106.15z M131.71,106.15c0-2.1-1.82-3.73-7.14-3.73c-5.29,0-7.11,1.63-7.11,3.73    c0,2.1,1.82,3.72,7.11,3.72C129.89,109.87,131.71,108.24,131.71,106.15z"></path>
		<path d="M110.53,97.85v-1.88h8.24v-0.06c-1.75-0.41-2.88-1.82-2.88-3.88c0-3.67,2.94-5.33,8.68-5.33c5.76,0,8.7,1.66,8.7,5.33    c0,1.97-1.22,3.57-3.13,4.07v0.06h2.76v1.69H110.53z M131.71,92.34c0-1.88-0.97-3.64-7.14-3.64c-6.14,0-7.11,1.76-7.11,3.64    c0,1.91,0.97,3.63,7.11,3.63C130.74,95.97,131.71,94.25,131.71,92.34z"></path>
		<path d="M110.53,83.64v-1.88h3.19v1.88H110.53z M116.26,83.64v-1.88h16.63v1.88H116.26z"></path>
		<path d="M110.53,77.88V76h22.36v1.88H110.53z"></path>
		<path d="M110.53,72.12v-1.88h3.19v1.88H110.53z M116.26,72.12v-1.88h16.63v1.88H116.26z"></path>
		<path d="M127.38,56.24c3.54,0.28,5.88,2.22,5.88,5.35c0,3.51-2.44,5.57-8.7,5.57c-5.76,0-8.68-2.07-8.68-5.73    c0-3.7,2.54-5.36,8.08-5.36h0.69v9.08h0.78c4.79,0,6.27-1.69,6.27-3.54c0-1.97-1.41-3.2-4.32-3.51V56.24z M123.09,58.09    c-4.14,0.06-5.64,1.23-5.64,3.54c0,2.32,1.5,3.48,5.64,3.54V58.09z M109.78,62.47l4.42-2.35v1.5l-4.42,3.07V62.47z"></path>
		<path d="M116.26,53.14v-1.88h2.6V51.2c-1.85-0.72-2.98-2.26-2.98-4.19c0-0.22,0.03-0.44,0.09-0.66h1.88    c-0.07,0.31-0.1,0.62-0.1,0.91c0,2.07,1.5,4.01,4.73,4.01h10.4v1.88H116.26z"></path>
		<path d="M127.38,34.2c3.54,0.28,5.88,2.22,5.88,5.35c0,3.51-2.44,5.57-8.7,5.57c-5.76,0-8.68-2.07-8.68-5.73    c0-3.69,2.54-5.35,8.08-5.35h0.69v9.08h0.78c4.79,0,6.27-1.69,6.27-3.53c0-1.98-1.41-3.2-4.32-3.51V34.2z M123.09,36.04    c-4.14,0.06-5.64,1.22-5.64,3.54c0,2.31,1.5,3.47,5.64,3.53V36.04z"></path>
		<path d="M124.63,28.47c-0.91,2.35-2.29,3.2-3.94,3.2c-3.42,0-4.79-2.13-4.79-4.95c0-3.13,1.6-4.58,4.63-4.58H121v1.88h-0.47    c-2.16,0-3.07,1-3.07,2.73c0,2.18,1.16,3.04,2.82,3.04c1.16,0,2.07-0.38,2.79-2.26l1.03-2.72c0.85-2.26,2.41-3.1,4.23-3.1    c2.85,0,4.95,1.63,4.95,5.14c0,3.42-1.41,5.1-5.17,5.1h-0.53v-1.88h0.44c2.44,0,3.69-1.06,3.69-3.19c0-2.01-1.13-3.29-2.98-3.29    c-1.47,0-2.41,0.59-3.07,2.26L124.63,28.47z"></path>
	</g>
	<g>
		<path class="st0" d="M138.83,159.59v-1.88h3.19v1.88H138.83z M144.56,159.59v-1.88h16.63v1.88H144.56z"></path>
		<path class="st0" d="M144.56,153.96v-1.69h2.32v-0.06c-1.85-0.94-2.69-2.57-2.69-4.26c0-2.54,1.32-4.26,4.45-4.26h12.56v1.88    h-12.02c-2.29,0-3.41,0.94-3.41,2.85c0,2.2,1.69,3.66,4.26,3.66h11.18v1.88H144.56z"></path>
		<path class="st0" d="M158.43,131.29v0.06c1.91,0.5,3.13,2.1,3.13,4.07c0,3.67-2.94,5.32-8.71,5.32c-5.73,0-8.67-1.66-8.67-5.32    c0-2.07,1.12-3.47,2.88-3.88v-0.06h-8.23v-1.88h22.36v1.69H158.43z M160,135.11c0-1.91-0.97-3.63-7.14-3.63    c-6.14,0-7.11,1.72-7.11,3.63c0,1.88,0.97,3.63,7.11,3.63C159.03,138.74,160,136.99,160,135.11z"></path>
		<path class="st0" d="M155.68,115.91c3.54,0.28,5.89,2.22,5.89,5.35c0,3.51-2.44,5.58-8.71,5.58c-5.76,0-8.67-2.07-8.67-5.73    c0-3.7,2.54-5.36,8.08-5.36h0.69v9.09h0.78c4.79,0,6.26-1.69,6.26-3.54c0-1.98-1.41-3.2-4.32-3.51V115.91z M151.39,117.76    c-4.13,0.06-5.64,1.22-5.64,3.54c0,2.31,1.51,3.47,5.64,3.54V117.76z M138.08,117.92l4.42,3.07v1.5l-4.42-2.35V117.92z"></path>
		<path class="st0" d="M144.56,113v-1.69h2.38v-0.06c-1.53-0.6-2.75-1.97-2.75-4.1c0-3.69,2.94-5.29,8.71-5.29    c5.73,0,8.67,1.66,8.67,5.32c0,2.07-1.12,3.47-2.88,3.88v0.06h8.01V113H144.56z M145.75,107.43c0,1.07,0.56,2,1.47,2.63    c1.16,0.81,2.79,1.07,5.67,1.07c6.14,0,7.11-1.72,7.11-3.63c0-1.88-0.97-3.63-7.11-3.63    C146.85,103.86,145.75,105.61,145.75,107.43z"></path>
		<path class="st0" d="M155.68,88.67c3.54,0.28,5.89,2.22,5.89,5.35c0,3.51-2.44,5.58-8.71,5.58c-5.76,0-8.67-2.07-8.67-5.73    c0-3.69,2.54-5.35,8.08-5.35h0.69v9.08h0.78c4.79,0,6.26-1.69,6.26-3.54c0-1.97-1.41-3.2-4.32-3.51V88.67z M151.39,90.52    c-4.13,0.06-5.64,1.22-5.64,3.54c0,2.32,1.51,3.48,5.64,3.54V90.52z"></path>
		<path class="st0" d="M144.56,85.58v-1.69h2.32v-0.06c-1.85-0.94-2.69-2.57-2.69-4.26c0-2.54,1.32-4.26,4.45-4.26h12.56v1.88    h-12.02c-2.29,0-3.41,0.94-3.41,2.85c0,2.19,1.69,3.66,4.26,3.66h11.18v1.88H144.56z"></path>
		<path class="st0" d="M158.43,62.9v0.06c1.91,0.5,3.13,2.1,3.13,4.07c0,3.67-2.94,5.33-8.71,5.33c-5.73,0-8.67-1.66-8.67-5.33    c0-2.06,1.12-3.47,2.88-3.89V63.1h-8.23v-1.88h22.36v1.69H158.43z M160,66.73c0-1.91-0.97-3.63-7.14-3.63    c-6.14,0-7.11,1.72-7.11,3.63c0,1.88,0.97,3.63,7.11,3.63C159.03,70.36,160,68.61,160,66.73z"></path>
		<path class="st0" d="M149.51,58.12c-3.41,0-5.32-1.63-5.32-5.13c0-3.45,1.79-4.7,4.41-4.7h9.83c0.94,0,1.38-0.32,1.38-0.97v-0.53    h1.38c0.13,0.34,0.18,0.63,0.18,0.88c0,1.47-0.33,2.41-2.06,2.41h-0.56v0.06c2.19,0.75,2.81,2.44,2.81,4.29    c0,2.91-1.81,4.23-4.7,4.23c-2.19,0-3.95-1-4.6-3.35l-1-3.54c-0.38-1.32-0.69-1.6-2.63-1.6c-2.13,0-2.88,1.19-2.88,2.88    c0,2.23,1.35,3.19,3.76,3.19V58.12z M151.8,50.16v0.06c0.56,0.19,0.91,1.25,1.1,2l0.41,1.57c0.5,1.88,1.47,2.85,3.45,2.85    c1.94,0,3.26-1,3.26-2.63c0-2.29-1.72-3.85-4.7-3.85H151.8z"></path>
		<path class="st0" d="M144.56,44.44v-1.7h2.32v-0.06c-1.85-0.94-2.69-2.57-2.69-4.26c0-2.54,1.32-4.26,4.45-4.26h12.56v1.88h-12.02    c-2.29,0-3.41,0.94-3.41,2.85c0,2.19,1.69,3.67,4.26,3.67h11.18v1.88H144.56z"></path>
		<path class="st0" d="M146.13,29.85v2.28h-1.57v-2.28h-4.6v-1.88h4.6v-2.94h1.57v2.94h11.93c1.32,0,1.75-0.57,1.75-1.79    c0-0.37-0.06-0.75-0.18-1.16h1.56c0.13,0.22,0.18,0.68,0.18,1.32c0,2.54-0.68,3.51-2.91,3.51H146.13z"></path>
		<path class="st0" d="M155.68,12.75c3.54,0.28,5.89,2.22,5.89,5.36c0,3.5-2.44,5.57-8.71,5.57c-5.76,0-8.67-2.07-8.67-5.73    c0-3.7,2.54-5.35,8.08-5.35h0.69v9.08h0.78c4.79,0,6.26-1.69,6.26-3.54c0-1.98-1.41-3.2-4.32-3.51V12.75z M151.39,14.6    c-4.13,0.06-5.64,1.22-5.64,3.54c0,2.32,1.51,3.47,5.64,3.54V14.6z"></path>
		<path class="st0" d="M152.92,7.02c-0.9,2.35-2.28,3.19-3.95,3.19c-3.41,0-4.79-2.13-4.79-4.95c0-3.14,1.6-4.58,4.63-4.58h0.47    v1.88h-0.47c-2.16,0-3.07,1-3.07,2.73c0,2.19,1.16,3.04,2.82,3.04c1.16,0,2.07-0.37,2.79-2.25l1.04-2.73    c0.85-2.25,2.41-3.1,4.23-3.1c2.85,0,4.94,1.62,4.94,5.14c0,3.42-1.41,5.1-5.17,5.1h-0.53V8.62h0.44c2.44,0,3.69-1.07,3.69-3.2    c0-2.01-1.13-3.29-2.97-3.29c-1.48,0-2.41,0.59-3.07,2.26L152.92,7.02z"></path>
	</g>
	<path class="st0" d="M70.77,340.96c5.07-3.7,13.2-6.1,20.71-6.1c0.41,0,0.83,0.01,1.24,0.02c5.19,0.18,9.95,1.54,14.13,4.03   c3.76,2.23,7.69,4.76,11.7,7.51c3.82,2.62,8.05,5.05,12.57,7.21c4.29,2.04,9.45,3.19,15.35,3.39c7.75,0.29,15.17-2.41,19.94-4.64   c5.23-2.45,12.9-8.25,16.69-13.73c3.97-5.76,7.37-12.34,10.11-19.57c2.37-6.25,4.28-12.46,5.69-18.46   c-0.25-0.11-0.5-0.22-0.74-0.33c-0.04-0.02-0.09-0.04-0.13-0.06c-2.5,5.49-5.75,9.96-9.68,13.29c-6.15,5.22-11.48,7.75-16.3,7.75   l-0.39-0.01c-4.79-0.14-9.62-1.56-15.21-4.45c-4-2.07-10.06-5.2-16.71-7.38c-6.41-2.11-13.62-3.56-21.43-4.31   c-1.7-0.17-3.41-0.25-5.1-0.25c-6.56,0-12.44,1.24-17.01,3.59l-8.67,4.69l0.77-1.74c0.05-0.12,1.36-3.03,4.18-6.83   c2.74-3.42,5.84-6.25,9.79-8.91c3.62-2.45,7.03-4.06,11.69-6.01c4.89-2.06,27.1-10.47,30.86-11.69c2.36-0.77,4.4-1.49,6.37-2.19   c2.5-0.89,4.85-1.72,7.4-2.47c2.84-0.84,5.52-1.9,7.67-2.76c1.08-0.43,2.05-0.82,2.9-1.12c8.99-3.28,14.35-7.59,20.09-13.47   c6.23-6.39,8.72-16.75,8.96-23.69c0.45-12.72-1.55-18.21-5.92-25.07c-4.2-6.58-8.73-11.93-17.18-16.69   c-7.03-3.96-12.8-6.11-20.57-7.67c-8-1.61-13.21-2.06-19.02-2.27c-7.58-0.26-16.07,0.74-23.47,2.77   c-7.08,1.94-13.9,4.95-20.83,9.18c-6.29,3.85-11.62,8.59-15.86,14.1c-4.09,5.32-6.39,11.27-6.83,17.69   c-0.35,3.46-0.2,7.24,0.46,11.24c0.64,3.93,1.98,7.71,3.98,11.24c1.94,3.43,4.65,5.6,8.04,7.88c3.31,2.24,7.89,3.47,13.63,3.67   c3.5,0.13,7.74-0.88,10.52-2.15c3.25-1.48,5.41-3.13,7.37-5.77c2.04-2.74,3.46-5.81,4.23-9.13c0.74-3.25,0.75-6.4,0.02-9.36   c-1.08-3.87-3.04-7.43-5.53-9.99c-2.41-2.46-4.06-3.58-7.35-5.8l-0.72-0.49c-0.79-0.53-1.55-1.03-2.29-1.51   c-1.69-1.1-3.28-2.13-4.71-3.29c-3.06-2.49-4.32-5-3.84-7.68c0.14-3.34,3.05-6.46,5.74-8.24c2.87-1.9,8.51-4.56,14.85-6.48   c3.64-1.1,10.07-2.41,14.18-2.42c2.7,0,8.21,0.02,14.04,2.51c4.89,2.08,8.43,4.72,11.16,8.3c1.87,2.45,5.24,7.49,6.84,13.68   c1.54,5.98,2.23,11.89,2.03,17.59c-0.21,5.83-1.23,11.57-2.88,16.17c-1.88,5.23-4.94,8.32-8.82,12.24l-1.19,1.21   c-3.64,3.72-9.76,8.47-18.69,14.51c-3.67,2.48-7.84,4.62-12.67,7.09c-4.95,2.54-10.57,5.41-16.88,9.31   c-7.56,4.67-14.12,10.03-19.49,15.95c-6.57,7.22-12.06,15.96-16.34,25.98c-0.03,0.08-0.13,0.35-0.26,0.67   c-0.65,1.66-1.73,4.4-2.67,8.61c-1.15,5.12-1.58,9.75-1.34,14.52l1.72,0.06C63.44,348.37,66.18,344.32,70.77,340.96z"></path>
	<g>
		<path d="M198.02,136.2c6.86,0,11.89-5.02,11.89-11.66c0-6.4-5.03-11.66-11.66-11.66c-6.4,0-11.66,5.26-11.66,11.66    C186.59,131.18,191.62,136.2,198.02,136.2z"></path>
		<path d="M209.69,245.02v-80.24l-0.92-0.92l-35.44,12.58v3.66c4.12-1.15,7.55-1.15,9.6-1.15c5.72,0,7.55,3.66,7.55,14.4v6.7    c1.75,2.05,3.35,4.29,4.94,6.78c4.58,7.18,6.47,12.79,6.03,25.44c-0.28,7.99-3.43,17.78-9.15,24.12    c-1.32,1.47-5.39,6.96-16.05,12.66h50.36v-3.46C211.52,264.46,209.69,261.94,209.69,245.02z"></path>
	</g>
	<path d="M79.55,256.82c-0.52-0.28-1.02-0.57-1.5-0.89c-2.04-1.38-3.81-2.99-5.35-4.78c-5.78,4.45-12.06,6.49-20.23,6.49   c-10.51,0-18.96-4.11-25.36-12.56c-8.22-10.97-9.36-19.88-10.51-37.24h54.47c0.38-0.55,0.76-1.1,1.17-1.64   c3.5-4.55,7.75-8.58,12.66-12.02c-1.29-4.91-3.13-8.79-5.7-12.39c-7.31-10.28-17.59-15.77-31.76-15.77   c-28.78,0-47.28,23.3-47.28,55.51c0,31.53,16.44,51.87,43.41,51.87C58.52,273.41,70.54,267.73,79.55,256.82z M41.28,174.26   c15.07,0,19.87,7.77,22.38,26.27h-46.6C19.58,183.4,28.49,174.26,41.28,174.26z"></path>
</g>
<g id="Version_affin&#xE9;e" class="st1">
	<g class="st2">
		<path d="M75.08,397.22c2.72,0.21,4.53,1.71,4.53,4.13c0,2.7-1.88,4.29-6.7,4.29c-4.44,0-6.68-1.59-6.68-4.41    c0-2.84,1.95-4.12,6.22-4.12h0.53v7h0.61c3.69,0,4.82-1.31,4.82-2.72c0-1.52-1.09-2.47-3.33-2.71V397.22z M71.77,398.64    c-3.18,0.05-4.34,0.94-4.34,2.73c0,1.78,1.16,2.67,4.34,2.72V398.64z"></path>
		<path d="M73.82,391.77l5.5,2.68v1.64l-6.61-3.45l-6.2,3.31v-1.64l5.07-2.54l-5.07-2.53v-1.64l6.2,3.31l6.61-3.45v1.64    L73.82,391.77z"></path>
		<path d="M66.51,386.05v-1.3h1.83v-0.05c-1.18-0.46-2.12-1.52-2.12-3.16c0-2.85,2.27-4.08,6.71-4.08c4.42,0,6.68,1.28,6.68,4.1    c0,1.59-0.86,2.68-2.22,2.99v0.05h6.18v1.45H66.51z M67.43,381.76c0,0.82,0.43,1.54,1.13,2.02c0.89,0.63,2.15,0.82,4.37,0.82    c4.73,0,5.48-1.33,5.48-2.8c0-1.45-0.74-2.8-5.48-2.8C68.27,379.01,67.43,380.36,67.43,381.76z"></path>
		<path d="M75.08,367.31c2.72,0.22,4.53,1.71,4.53,4.13c0,2.7-1.88,4.29-6.7,4.29c-4.44,0-6.68-1.59-6.68-4.42    c0-2.84,1.95-4.12,6.22-4.12h0.53v6.99h0.61c3.69,0,4.82-1.3,4.82-2.72c0-1.52-1.09-2.46-3.33-2.7V367.31z M71.77,368.73    c-3.18,0.05-4.34,0.94-4.34,2.73c0,1.79,1.16,2.68,4.34,2.72V368.73z"></path>
		<path d="M66.51,364.92v-1.45h2v-0.05c-1.42-0.55-2.29-1.74-2.29-3.23c0-0.17,0.02-0.33,0.07-0.51h1.45    c-0.05,0.24-0.07,0.48-0.07,0.7c0,1.59,1.16,3.09,3.64,3.09h8.01v1.45H66.51z"></path>
		<path d="M67.72,356.84v1.76h-1.2v-1.76h-3.55v-1.45h3.55v-2.27h1.2v2.27h9.19c1.02,0,1.35-0.44,1.35-1.38    c0-0.29-0.04-0.58-0.14-0.89h1.21c0.1,0.17,0.14,0.53,0.14,1.01c0,1.95-0.53,2.7-2.24,2.7H67.72z"></path>
		<path d="M62.1,351.47v-1.45h2.46v1.45H62.1z M66.51,351.47v-1.45h12.81v1.45H66.51z"></path>
		<path d="M72.96,345.1c-0.7,1.81-1.76,2.46-3.04,2.46c-2.63,0-3.69-1.64-3.69-3.81c0-2.42,1.23-3.52,3.57-3.52h0.36v1.45h-0.36    c-1.67,0-2.36,0.77-2.36,2.1c0,1.69,0.89,2.34,2.17,2.34c0.9,0,1.59-0.29,2.15-1.74l0.79-2.1c0.65-1.73,1.86-2.39,3.26-2.39    c2.2,0,3.81,1.26,3.81,3.96c0,2.63-1.08,3.93-3.98,3.93h-0.41v-1.45h0.34c1.88,0,2.85-0.82,2.85-2.46c0-1.54-0.87-2.54-2.29-2.54    c-1.13,0-1.86,0.46-2.37,1.74L72.96,345.1z"></path>
		<path d="M75.08,329.86c2.72,0.22,4.53,1.71,4.53,4.12c0,2.7-1.88,4.29-6.7,4.29c-4.44,0-6.68-1.59-6.68-4.41    c0-2.85,1.95-4.13,6.22-4.13h0.53v7h0.61c3.69,0,4.82-1.3,4.82-2.73c0-1.52-1.09-2.46-3.33-2.7V329.86z M71.77,331.28    c-3.18,0.05-4.34,0.95-4.34,2.73c0,1.79,1.16,2.68,4.34,2.73V331.28z"></path>
		<path d="M72.96,325.44c-0.7,1.81-1.76,2.46-3.04,2.46c-2.63,0-3.69-1.64-3.69-3.81c0-2.41,1.23-3.52,3.57-3.52h0.36v1.45h-0.36    c-1.67,0-2.36,0.77-2.36,2.1c0,1.69,0.89,2.34,2.17,2.34c0.9,0,1.59-0.29,2.15-1.74l0.79-2.1c0.65-1.74,1.86-2.39,3.26-2.39    c2.2,0,3.81,1.25,3.81,3.96c0,2.63-1.08,3.93-3.98,3.93h-0.41v-1.45h0.34c1.88,0,2.85-0.82,2.85-2.46c0-1.55-0.87-2.53-2.29-2.53    c-1.13,0-1.86,0.46-2.37,1.74L72.96,325.44z"></path>
	</g>
	<g class="st2">
		<path d="M87.85,405.64v-1.45h2.46v1.45H87.85z M92.27,405.64v-1.45h12.81v1.45H92.27z"></path>
		<path d="M92.27,401.2v-1.3h1.79v-0.05c-1.42-0.68-2.08-1.83-2.08-3.26c0-1.55,0.94-2.49,2.24-2.68v-0.04    c-1.42-0.58-2.24-1.62-2.24-3.26c0-1.79,1.01-2.97,3.3-2.97h9.8v1.45H95.5c-1.52,0-2.32,0.7-2.32,2c0,1.45,1.31,2.6,3.29,2.6h8.61    v1.45H95.5c-1.52,0-2.32,0.7-2.32,2c0,1.45,1.31,2.61,3.29,2.61h8.61v1.45H92.27z"></path>
		<path d="M92.27,384.65v-1.3h1.79v-0.05c-1.42-0.67-2.08-1.83-2.08-3.26c0-1.54,0.94-2.49,2.24-2.68v-0.05    c-1.42-0.58-2.24-1.62-2.24-3.26c0-1.79,1.01-2.97,3.3-2.97h9.8v1.45H95.5c-1.52,0-2.32,0.7-2.32,2c0,1.45,1.31,2.61,3.29,2.61    h8.61v1.45H95.5c-1.52,0-2.32,0.7-2.32,2c0,1.45,1.31,2.6,3.29,2.6h8.61v1.45H92.27z"></path>
		<path d="M91.98,364.47c0-2.83,2.24-4.42,6.68-4.42c4.46,0,6.7,1.59,6.7,4.42c0,2.82-2.24,4.41-6.7,4.41    C94.22,368.88,91.98,367.29,91.98,364.47z M104.17,364.47c0-1.62-1.4-2.87-5.5-2.87c-4.08,0-5.48,1.26-5.48,2.87    c0,1.62,1.4,2.87,5.48,2.87C102.77,367.33,104.17,366.08,104.17,364.47z"></path>
		<path d="M87.85,358.08v-1.45h6.35v-0.05c-1.35-0.31-2.22-1.4-2.22-2.99c0-2.82,2.27-4.1,6.68-4.1c4.44,0,6.7,1.28,6.7,4.1    c0,1.52-0.94,2.75-2.41,3.14v0.05h2.12v1.3H87.85z M104.17,353.83c0-1.45-0.75-2.8-5.5-2.8c-4.73,0-5.48,1.35-5.48,2.8    c0,1.47,0.75,2.8,5.48,2.8C103.42,356.63,104.17,355.3,104.17,353.83z"></path>
		<path d="M87.85,347.12v-1.45h2.46v1.45H87.85z M92.27,347.12v-1.45h12.81v1.45H92.27z"></path>
		<path d="M87.85,342.69v-1.45h17.23v1.45H87.85z"></path>
		<path d="M87.85,338.25v-1.45h2.46v1.45H87.85z M92.27,338.25v-1.45h12.81v1.45H92.27z"></path>
		<path d="M100.84,326.02c2.72,0.21,4.53,1.71,4.53,4.12c0,2.7-1.88,4.29-6.7,4.29c-4.44,0-6.68-1.59-6.68-4.42    c0-2.85,1.96-4.13,6.22-4.13h0.53v7h0.6c3.69,0,4.83-1.3,4.83-2.73c0-1.52-1.09-2.46-3.33-2.7V326.02z M97.53,327.44    c-3.19,0.05-4.34,0.94-4.34,2.73c0,1.78,1.16,2.68,4.34,2.73V327.44z M87.27,330.82l3.4-1.81v1.16l-3.4,2.37V330.82z"></path>
		<path d="M92.27,323.63v-1.45h2v-0.05c-1.42-0.55-2.29-1.74-2.29-3.23c0-0.17,0.02-0.34,0.07-0.5h1.45    c-0.05,0.24-0.07,0.48-0.07,0.7c0,1.59,1.16,3.09,3.65,3.09h8.01v1.45H92.27z"></path>
		<path d="M100.84,309.04c2.72,0.22,4.53,1.71,4.53,4.12c0,2.7-1.88,4.29-6.7,4.29c-4.44,0-6.68-1.59-6.68-4.42    c0-2.84,1.96-4.12,6.22-4.12h0.53v7h0.6c3.69,0,4.83-1.3,4.83-2.72c0-1.52-1.09-2.47-3.33-2.7V309.04z M97.53,310.46    c-3.19,0.05-4.34,0.94-4.34,2.73c0,1.78,1.16,2.67,4.34,2.72V310.46z"></path>
		<path d="M98.71,304.62c-0.7,1.81-1.76,2.46-3.04,2.46c-2.63,0-3.69-1.64-3.69-3.81c0-2.41,1.23-3.53,3.57-3.53h0.36v1.45h-0.36    c-1.66,0-2.37,0.77-2.37,2.1c0,1.68,0.9,2.34,2.17,2.34c0.9,0,1.59-0.3,2.15-1.74l0.8-2.1c0.65-1.74,1.86-2.39,3.26-2.39    c2.19,0,3.81,1.25,3.81,3.96c0,2.63-1.08,3.93-3.98,3.93h-0.41v-1.45h0.34c1.88,0,2.85-0.82,2.85-2.46c0-1.55-0.87-2.53-2.29-2.53    c-1.13,0-1.86,0.46-2.37,1.74L98.71,304.62z"></path>
	</g>
	<g class="st2">
		<path class="st0" d="M109.65,405.64v-1.45h2.46v1.45H109.65z M114.07,405.64v-1.45h12.81v1.45H114.07z"></path>
		<path class="st0" d="M114.07,401.3v-1.3h1.79v-0.05c-1.43-0.72-2.07-1.98-2.07-3.28c0-1.96,1.02-3.28,3.43-3.28h9.67v1.45h-9.26    c-1.76,0-2.63,0.72-2.63,2.2c0,1.69,1.3,2.82,3.28,2.82h8.61v1.45H114.07z"></path>
		<path class="st0" d="M124.75,383.83v0.05c1.47,0.38,2.41,1.62,2.41,3.14c0,2.82-2.27,4.1-6.71,4.1c-4.41,0-6.68-1.28-6.68-4.1    c0-1.59,0.87-2.68,2.22-2.99v-0.05h-6.34v-1.45h17.22v1.3H124.75z M125.96,386.78c0-1.47-0.75-2.8-5.5-2.8    c-4.73,0-5.48,1.33-5.48,2.8c0,1.45,0.75,2.79,5.48,2.79C125.22,389.57,125.96,388.22,125.96,386.78z"></path>
		<path class="st0" d="M122.63,371.99c2.73,0.22,4.54,1.71,4.54,4.12c0,2.7-1.88,4.3-6.71,4.3c-4.44,0-6.68-1.59-6.68-4.41    c0-2.85,1.95-4.13,6.22-4.13h0.53v7h0.6c3.69,0,4.82-1.3,4.82-2.72c0-1.52-1.08-2.46-3.33-2.7V371.99z M119.33,373.41    c-3.18,0.05-4.34,0.94-4.34,2.73c0,1.78,1.16,2.67,4.34,2.72V373.41z M109.07,373.53l3.41,2.36v1.16l-3.41-1.81V373.53z"></path>
		<path class="st0" d="M114.07,369.75v-1.3h1.83v-0.05c-1.18-0.46-2.12-1.52-2.12-3.16c0-2.85,2.27-4.08,6.71-4.08    c4.42,0,6.68,1.28,6.68,4.1c0,1.59-0.87,2.68-2.22,2.99v0.05h6.17v1.45H114.07z M114.99,365.45c0,0.82,0.44,1.54,1.13,2.03    c0.89,0.63,2.15,0.82,4.37,0.82c4.73,0,5.48-1.33,5.48-2.8c0-1.45-0.75-2.8-5.48-2.8C115.83,362.7,114.99,364.05,114.99,365.45z"></path>
		<path class="st0" d="M122.63,351c2.73,0.22,4.54,1.71,4.54,4.12c0,2.7-1.88,4.3-6.71,4.3c-4.44,0-6.68-1.59-6.68-4.42    c0-2.84,1.95-4.12,6.22-4.12h0.53v6.99h0.6c3.69,0,4.82-1.3,4.82-2.73c0-1.52-1.08-2.46-3.33-2.7V351z M119.33,352.43    c-3.18,0.05-4.34,0.94-4.34,2.73c0,1.79,1.16,2.68,4.34,2.73V352.43z"></path>
		<path class="st0" d="M114.07,348.62v-1.3h1.79v-0.05c-1.43-0.72-2.07-1.98-2.07-3.28c0-1.96,1.02-3.28,3.43-3.28h9.67v1.45h-9.26    c-1.76,0-2.63,0.72-2.63,2.19c0,1.69,1.3,2.82,3.28,2.82h8.61v1.45H114.07z"></path>
		<path class="st0" d="M124.75,331.15v0.05c1.47,0.39,2.41,1.62,2.41,3.14c0,2.82-2.27,4.1-6.71,4.1c-4.41,0-6.68-1.28-6.68-4.1    c0-1.59,0.87-2.68,2.22-2.99v-0.04h-6.34v-1.45h17.22v1.3H124.75z M125.96,334.1c0-1.47-0.75-2.8-5.5-2.8    c-4.73,0-5.48,1.33-5.48,2.8c0,1.45,0.75,2.8,5.48,2.8C125.22,336.9,125.96,335.55,125.96,334.1z"></path>
		<path class="st0" d="M117.88,327.46c-2.63,0-4.1-1.25-4.1-3.95c0-2.65,1.38-3.62,3.4-3.62h7.57c0.73,0,1.06-0.24,1.06-0.75v-0.41    h1.06c0.1,0.27,0.14,0.48,0.14,0.68c0,1.13-0.26,1.86-1.59,1.86H125v0.05c1.68,0.58,2.17,1.88,2.17,3.3c0,2.24-1.4,3.26-3.62,3.26    c-1.69,0-3.04-0.77-3.55-2.58l-0.77-2.73c-0.29-1.02-0.53-1.23-2.03-1.23c-1.64,0-2.22,0.92-2.22,2.22c0,1.71,1.04,2.46,2.9,2.46    V327.46z M119.64,321.34v0.05c0.43,0.15,0.7,0.97,0.85,1.54l0.31,1.21c0.38,1.45,1.13,2.2,2.65,2.2c1.5,0,2.51-0.77,2.51-2.03    c0-1.76-1.33-2.97-3.62-2.97H119.64z"></path>
		<path class="st0" d="M114.07,316.93v-1.31h1.79v-0.04c-1.43-0.72-2.07-1.98-2.07-3.28c0-1.95,1.02-3.29,3.43-3.29h9.67v1.45h-9.26    c-1.76,0-2.63,0.73-2.63,2.2c0,1.69,1.3,2.83,3.28,2.83h8.61v1.45H114.07z"></path>
		<path class="st0" d="M115.28,305.69v1.76h-1.21v-1.76h-3.55v-1.45h3.55v-2.27h1.21v2.27h9.19c1.02,0,1.35-0.44,1.35-1.38    c0-0.29-0.04-0.58-0.14-0.89h1.21c0.1,0.17,0.14,0.53,0.14,1.01c0,1.95-0.53,2.7-2.24,2.7H115.28z"></path>
		<path class="st0" d="M122.63,292.51c2.73,0.22,4.54,1.71,4.54,4.13c0,2.7-1.88,4.29-6.71,4.29c-4.44,0-6.68-1.59-6.68-4.41    c0-2.85,1.95-4.12,6.22-4.12h0.53v7h0.6c3.69,0,4.82-1.3,4.82-2.73c0-1.52-1.08-2.46-3.33-2.7V292.51z M119.33,293.94    c-3.18,0.05-4.34,0.94-4.34,2.73c0,1.78,1.16,2.68,4.34,2.73V293.94z"></path>
		<path class="st0" d="M120.51,288.1c-0.7,1.81-1.76,2.46-3.04,2.46c-2.63,0-3.69-1.64-3.69-3.81c0-2.42,1.23-3.53,3.57-3.53h0.36    v1.45h-0.36c-1.66,0-2.36,0.77-2.36,2.1c0,1.69,0.89,2.34,2.17,2.34c0.89,0,1.59-0.29,2.15-1.74l0.8-2.1    c0.65-1.74,1.86-2.39,3.26-2.39c2.19,0,3.81,1.25,3.81,3.96c0,2.63-1.08,3.93-3.98,3.93h-0.41v-1.44h0.34    c1.88,0,2.84-0.82,2.84-2.46c0-1.55-0.87-2.53-2.29-2.53c-1.14,0-1.86,0.46-2.37,1.74L120.51,288.1z"></path>
	</g>
	<path class="st3" d="M57.22,545.36c3.9-2.85,10.17-4.7,15.95-4.7c0.32,0,0.64,0.01,0.96,0.02c4,0.14,7.66,1.19,10.89,3.11   c2.89,1.72,5.93,3.67,9.02,5.79c2.94,2.02,6.2,3.89,9.68,5.55c3.3,1.58,7.28,2.46,11.82,2.61c5.97,0.22,11.69-1.85,15.36-3.57   c4.03-1.89,9.94-6.36,12.86-10.58c3.06-4.43,5.68-9.51,7.79-15.08c1.82-4.82,3.3-9.6,4.38-14.22c-0.19-0.08-0.38-0.17-0.57-0.25   c-0.03-0.01-0.07-0.03-0.1-0.04c-1.93,4.23-4.43,7.67-7.46,10.23c-4.74,4.02-8.85,5.97-12.55,5.97l-0.3,0   c-3.69-0.11-7.41-1.2-11.72-3.43c-3.08-1.59-7.75-4-12.87-5.69c-4.94-1.63-10.5-2.74-16.51-3.32c-1.31-0.13-2.63-0.19-3.93-0.19   c-5.05,0-9.58,0.96-13.1,2.76l-6.68,3.61l0.6-1.34c0.04-0.09,1.05-2.33,3.22-5.26c2.11-2.64,4.5-4.81,7.54-6.87   c2.79-1.88,5.41-3.12,9-4.63c3.77-1.58,20.87-8.07,23.77-9.01c1.82-0.59,3.39-1.15,4.91-1.69c1.92-0.68,3.74-1.33,5.7-1.91   c2.19-0.64,4.25-1.47,5.91-2.13c0.83-0.33,1.58-0.63,2.23-0.86c6.92-2.53,11.06-5.84,15.48-10.38c4.8-4.92,6.72-12.91,6.9-18.25   c0.34-9.8-1.2-14.03-4.56-19.31c-3.23-5.07-6.72-9.19-13.23-12.86c-5.42-3.05-9.86-4.71-15.85-5.91   c-6.17-1.24-10.18-1.59-14.65-1.75c-5.84-0.2-12.38,0.57-18.08,2.13c-5.46,1.5-10.71,3.81-16.05,7.07   c-4.84,2.96-8.95,6.62-12.21,10.86c-3.15,4.1-4.92,8.68-5.26,13.63c-0.27,2.67-0.15,5.58,0.36,8.66c0.5,3.03,1.53,5.94,3.06,8.66   c1.49,2.64,3.58,4.31,6.2,6.07c2.55,1.72,6.08,2.68,10.5,2.83c2.7,0.1,5.96-0.68,8.1-1.66c2.5-1.14,4.16-2.41,5.68-4.45   c1.57-2.11,2.67-4.47,3.26-7.03c0.57-2.5,0.58-4.93,0.01-7.21c-0.83-2.98-2.34-5.72-4.26-7.69c-1.85-1.9-3.13-2.76-5.66-4.46   l-0.55-0.37c-0.61-0.41-1.2-0.79-1.77-1.17c-1.3-0.85-2.53-1.64-3.63-2.54c-2.36-1.92-3.33-3.85-2.96-5.92   c0.11-2.57,2.35-4.98,4.42-6.35c2.21-1.47,6.56-3.51,11.44-4.99c2.8-0.85,7.76-1.86,10.92-1.86c2.08,0,6.32,0.01,10.82,1.93   c3.76,1.6,6.5,3.63,8.59,6.39c1.44,1.89,4.04,5.77,5.27,10.54c1.19,4.6,1.71,9.16,1.56,13.55c-0.16,4.49-0.95,8.91-2.22,12.45   c-1.45,4.03-3.8,6.41-6.79,9.43l-0.92,0.93c-2.81,2.87-7.52,6.52-14.4,11.18c-2.83,1.91-6.04,3.56-9.76,5.46   c-3.82,1.96-8.14,4.17-13,7.17c-5.82,3.59-10.88,7.73-15.02,12.28c-5.06,5.56-9.29,12.3-12.59,20.01c-0.02,0.06-0.1,0.27-0.2,0.51   c-0.5,1.28-1.33,3.39-2.06,6.63c-0.88,3.94-1.21,7.51-1.03,11.19l1.33,0.05C51.57,551.06,53.68,547.94,57.22,545.36z"></path>
	<g class="st2">
		<path d="M155.25,387.62c5.29,0,9.16-3.87,9.16-8.98c0-4.93-3.87-8.98-8.99-8.98c-4.93,0-8.98,4.05-8.98,8.98    C146.45,383.75,150.32,387.62,155.25,387.62z"></path>
		<path d="M164.24,471.45v-61.81l-0.71-0.7l-27.3,9.69v2.82c3.17-0.88,5.82-0.88,7.4-0.88c4.4,0,5.82,2.82,5.82,11.09v5.16    c1.34,1.58,2.58,3.3,3.81,5.22c3.53,5.53,4.98,9.86,4.64,19.6c-0.21,6.16-2.65,13.7-7.05,18.58c-1.02,1.13-4.15,5.36-12.37,9.75    h38.79v-2.66C165.65,486.42,164.24,484.48,164.24,471.45z"></path>
	</g>
	<path class="st2" d="M63.99,480.54c-0.4-0.21-0.79-0.44-1.15-0.69c-1.57-1.06-2.94-2.3-4.12-3.68c-4.46,3.43-9.29,5-15.58,5   c-8.1,0-14.61-3.16-19.54-9.67c-6.33-8.45-7.21-15.31-8.09-28.69h41.96c0.29-0.42,0.58-0.85,0.9-1.26c2.7-3.51,5.97-6.61,9.75-9.26   c-0.99-3.78-2.41-6.77-4.39-9.54c-5.63-7.92-13.55-12.15-24.46-12.15c-22.17,0-36.42,17.95-36.42,42.77   c0,24.29,12.67,39.96,33.44,39.96C47.79,493.32,57.04,488.94,63.99,480.54z M34.51,416.93c11.61,0,15.31,5.98,17.24,20.24h-35.9   C17.79,423.98,24.65,416.93,34.51,416.93z"></path>
</g>
</svg>