<?xml version="1.0" encoding="utf-8"?>
<!-- Generator: Adobe Illustrator 27.8.0, SVG Export Plug-In . SVG Version: 6.00 Build 0)  -->
<svg version="1.1" id="Layer_1" xmlns="http://www.w3.org/2000/svg" xmlns:xlink="http://www.w3.org/1999/xlink" x="0px" y="0px"
	 viewBox="0 0 80 86.26" style="enable-background:new 0 0 80 86.26;" xml:space="preserve">
<style type="text/css">
	.st0{fill:#CF043C;}
</style>
<path class="st0" d="M24.95,80.58c1.79-1.31,4.66-2.16,7.32-2.16c0.14,0,0.29,0,0.44,0.01c1.83,0.06,3.52,0.54,4.99,1.42
	c1.33,0.79,2.72,1.68,4.13,2.65c1.35,0.93,2.84,1.78,4.44,2.55c1.52,0.72,3.34,1.13,5.42,1.2c2.74,0.1,5.36-0.85,7.04-1.64
	c1.85-0.87,4.56-2.91,5.9-4.85c1.4-2.03,2.6-4.36,3.57-6.91c0.84-2.21,1.51-4.4,2.01-6.52c-0.09-0.04-0.18-0.08-0.26-0.12
	c-0.01-0.01-0.03-0.01-0.05-0.02c-0.88,1.94-2.03,3.52-3.42,4.7c-2.17,1.84-4.06,2.74-5.76,2.74l-0.14,0
	c-1.69-0.05-3.4-0.55-5.37-1.57c-1.41-0.73-3.55-1.84-5.9-2.61c-2.26-0.75-4.81-1.26-7.57-1.52c-0.6-0.06-1.2-0.09-1.8-0.09
	c-2.32,0-4.39,0.44-6.01,1.27l-3.06,1.66l0.27-0.61c0.02-0.04,0.48-1.07,1.48-2.41c0.97-1.21,2.06-2.21,3.46-3.15
	c1.28-0.87,2.48-1.43,4.13-2.12c1.73-0.73,9.57-3.7,10.9-4.13c0.83-0.27,1.55-0.53,2.25-0.77c0.88-0.31,1.71-0.61,2.61-0.87
	c1-0.3,1.95-0.67,2.71-0.98c0.38-0.15,0.72-0.29,1.02-0.4c3.18-1.16,5.07-2.68,7.1-4.76c2.2-2.26,3.08-5.92,3.17-8.37
	c0.16-4.49-0.55-6.43-2.09-8.86c-1.48-2.32-3.08-4.21-6.07-5.9c-2.48-1.4-4.52-2.16-7.27-2.71c-2.83-0.57-4.67-0.73-6.72-0.8
	c-2.68-0.09-5.68,0.26-8.29,0.98c-2.5,0.69-4.91,1.75-7.36,3.24c-2.22,1.36-4.11,3.03-5.6,4.98c-1.44,1.88-2.26,3.98-2.41,6.25
	c-0.12,1.22-0.07,2.56,0.16,3.97c0.23,1.39,0.7,2.72,1.41,3.97c0.69,1.21,1.64,1.98,2.84,2.78c1.17,0.79,2.79,1.23,4.82,1.3
	c1.24,0.05,2.73-0.31,3.72-0.76c1.15-0.52,1.91-1.11,2.6-2.04c0.72-0.97,1.22-2.05,1.49-3.23c0.26-1.15,0.26-2.26,0.01-3.31
	c-0.38-1.37-1.07-2.62-1.95-3.53c-0.85-0.87-1.43-1.26-2.6-2.05l-0.25-0.17c-0.28-0.19-0.55-0.36-0.81-0.53
	c-0.6-0.39-1.16-0.75-1.66-1.16c-1.08-0.88-1.53-1.77-1.36-2.71c0.05-1.18,1.08-2.28,2.03-2.91c1.01-0.67,3.01-1.61,5.25-2.29
	c1.29-0.39,3.56-0.85,5.01-0.85c0.95,0,2.9,0.01,4.96,0.89c1.73,0.73,2.98,1.67,3.94,2.93c0.66,0.87,1.85,2.65,2.42,4.83
	c0.54,2.11,0.79,4.2,0.72,6.21c-0.07,2.06-0.43,4.09-1.02,5.71c-0.66,1.85-1.75,2.94-3.12,4.32l-0.42,0.43
	c-1.29,1.31-3.45,2.99-6.6,5.13c-1.3,0.88-2.77,1.63-4.48,2.5c-1.75,0.9-3.73,1.91-5.96,3.29c-2.67,1.65-4.99,3.54-6.89,5.63
	c-2.32,2.55-4.26,5.64-5.77,9.18c-0.01,0.03-0.05,0.12-0.09,0.24c-0.23,0.59-0.61,1.55-0.94,3.04c-0.41,1.81-0.56,3.44-0.47,5.13
	l0.61,0.02C22.36,83.19,23.32,81.76,24.95,80.58z"/>
<g>
	<path d="M69.9,8.24c2.42,0,4.2-1.77,4.2-4.12C74.1,1.86,72.32,0,69.98,0c-2.26,0-4.12,1.86-4.12,4.12
		C65.86,6.47,67.64,8.24,69.9,8.24z"/>
	<path d="M74.02,46.68V18.34l-0.33-0.33l-12.52,4.44v1.29c1.46-0.41,2.67-0.41,3.39-0.41c2.02,0,2.67,1.29,2.67,5.09v2.37
		c0.62,0.72,1.18,1.52,1.75,2.4c1.62,2.54,2.29,4.52,2.13,8.99c-0.1,2.82-1.21,6.28-3.23,8.52c-0.47,0.52-1.9,2.46-5.67,4.47H80
		v-1.22C74.67,53.55,74.02,52.66,74.02,46.68z"/>
</g>
<path d="M28.05,50.85c-0.18-0.1-0.36-0.2-0.53-0.31c-0.72-0.49-1.35-1.06-1.89-1.69c-2.04,1.57-4.26,2.29-7.15,2.29
	c-3.71,0-6.7-1.45-8.96-4.44c-2.9-3.88-3.31-7.02-3.71-13.16h19.24c0.13-0.19,0.27-0.39,0.41-0.58c1.24-1.61,2.74-3.03,4.47-4.25
	c-0.46-1.73-1.11-3.11-2.01-4.38c-2.58-3.63-6.21-5.57-11.22-5.57C6.54,18.77,0,27,0,38.38c0,11.14,5.81,18.32,15.34,18.32
	C20.62,56.71,24.86,54.71,28.05,50.85z M14.53,21.68c5.32,0,7.02,2.74,7.91,9.28H5.97C6.86,24.91,10.01,21.68,14.53,21.68z"/>
</svg>
